<mxfile host="app.diagrams.net" agent="Mozilla/5.0 (Windows NT 10.0; Win64; x64) AppleWebKit/537.36 (KHTML, like Gecko) Chrome/141.0.0.0 Safari/537.36" version="28.2.8" pages="2">
  <diagram name="성적확인서 API 시스템 아키텍처" id="system-architecture">
    <mxGraphModel dx="983" dy="536" grid="1" gridSize="10" guides="1" tooltips="1" connect="1" arrows="1" fold="1" page="1" pageScale="1" pageWidth="1169" pageHeight="827" background="light-dark(#FFFFFF,#FFFFFF)" math="0" shadow="0">
      <root>
        <mxCell id="0" />
        <mxCell id="1" parent="0" />
        <mxCell id="title" value="성적확인서 API 시스템 아키텍처" style="text;html=1;strokeColor=none;fillColor=none;align=center;verticalAlign=middle;whiteSpace=wrap;rounded=0;fontSize=24;fontStyle=1;fontColor=light-dark(#000000,#FF8000);" parent="1" vertex="1">
          <mxGeometry x="320" y="60" width="530" height="40" as="geometry" />
        </mxCell>
        <mxCell id="client-layer" value="클라이언트" style="rounded=1;whiteSpace=wrap;html=1;fontSize=16;fillColor=#E3F2FD;strokeColor=#1976D2;strokeWidth=2;fontColor=#0D47A1;fontStyle=1;" parent="1" vertex="1">
          <mxGeometry x="80" y="120" width="200" height="80" as="geometry" />
        </mxCell>
        <mxCell id="browser" value="🌐 웹 브라우저" style="rounded=1;whiteSpace=wrap;html=1;fontSize=14;fillColor=#FFFFFF;strokeColor=#1976D2;strokeWidth=2;fontColor=#1A1A1A;" parent="1" vertex="1">
          <mxGeometry x="100" y="140" width="160" height="40" as="geometry" />
        </mxCell>
        <mxCell id="api-gateway" value="API Gateway" style="rounded=1;whiteSpace=wrap;html=1;fontSize=16;fillColor=#FFF3E0;strokeColor=#F57C00;strokeWidth=2;fontColor=#E65100;fontStyle=1;" parent="1" vertex="1">
          <mxGeometry x="485" y="120" width="200" height="80" as="geometry" />
        </mxCell>
        <mxCell id="jwt-filter" value="🔒 JWT Filter" style="rounded=1;whiteSpace=wrap;html=1;fontSize=14;fillColor=#FFFFFF;strokeColor=#F57C00;strokeWidth=2;fontColor=#1A1A1A;" parent="1" vertex="1">
          <mxGeometry x="505" y="140" width="160" height="40" as="geometry" />
        </mxCell>
        <mxCell id="controller-layer" value="Controller" style="rounded=1;whiteSpace=wrap;html=1;fontSize=16;fillColor=#E8F5E9;strokeColor=#388E3C;strokeWidth=2;fontColor=#1B5E20;fontStyle=1;" parent="1" vertex="1">
          <mxGeometry x="850" y="120" width="200" height="80" as="geometry" />
        </mxCell>
        <mxCell id="transcript-controller" value="📄 TranscriptController" style="rounded=1;whiteSpace=wrap;html=1;fontSize=14;fillColor=#FFFFFF;strokeColor=#388E3C;strokeWidth=2;fontColor=#1A1A1A;" parent="1" vertex="1">
          <mxGeometry x="870" y="140" width="160" height="40" as="geometry" />
        </mxCell>
        <mxCell id="service-layer" value="Service Layer" style="rounded=1;whiteSpace=wrap;html=1;fontSize=16;fillColor=#F3E5F5;strokeColor=#7B1FA2;strokeWidth=2;fontColor=#4A148C;fontStyle=1;verticalAlign=top;" parent="1" vertex="1">
          <mxGeometry x="350" y="255" width="520" height="210" as="geometry" />
        </mxCell>
        <mxCell id="transcript-service" value="TranscriptService" style="rounded=1;whiteSpace=wrap;html=1;fontSize=14;fillColor=#FFFFFF;strokeColor=#7B1FA2;strokeWidth=2;fontColor=#1A1A1A;fontStyle=1;" parent="1" vertex="1">
          <mxGeometry x="370" y="300" width="200" height="50" as="geometry" />
        </mxCell>
        <mxCell id="service-1" value="📊 성적 계산" style="rounded=1;whiteSpace=wrap;html=1;fontSize=12;fillColor=#FFFFFF;strokeColor=#7B1FA2;strokeWidth=1;fontColor=#1A1A1A;" parent="1" vertex="1">
          <mxGeometry x="370" y="365" width="140" height="35" as="geometry" />
        </mxCell>
        <mxCell id="service-2" value="📈 학기별 통계" style="rounded=1;whiteSpace=wrap;html=1;fontSize=12;fillColor=#FFFFFF;strokeColor=#7B1FA2;strokeWidth=1;fontColor=#1A1A1A;" parent="1" vertex="1">
          <mxGeometry x="530" y="365" width="140" height="35" as="geometry" />
        </mxCell>
        <mxCell id="service-3" value="🎓 전체 통계" style="rounded=1;whiteSpace=wrap;html=1;fontSize=12;fillColor=#FFFFFF;strokeColor=#7B1FA2;strokeWidth=1;fontColor=#1A1A1A;" parent="1" vertex="1">
          <mxGeometry x="690" y="365" width="140" height="35" as="geometry" />
        </mxCell>
        <mxCell id="service-4" value="✅ 상태 판정" style="rounded=1;whiteSpace=wrap;html=1;fontSize=12;fillColor=#FFFFFF;strokeColor=#7B1FA2;strokeWidth=1;fontColor=#1A1A1A;" parent="1" vertex="1">
          <mxGeometry x="370" y="415" width="140" height="35" as="geometry" />
        </mxCell>
        <mxCell id="service-5" value="🔢 GPA 변환" style="rounded=1;whiteSpace=wrap;html=1;fontSize=12;fillColor=#FFFFFF;strokeColor=#7B1FA2;strokeWidth=1;fontColor=#1A1A1A;" parent="1" vertex="1">
          <mxGeometry x="530" y="415" width="140" height="35" as="geometry" />
        </mxCell>
        <mxCell id="service-6" value="📋 발급번호 생성" style="rounded=1;whiteSpace=wrap;html=1;fontSize=12;fillColor=#FFFFFF;strokeColor=#7B1FA2;strokeWidth=1;fontColor=#1A1A1A;" parent="1" vertex="1">
          <mxGeometry x="690" y="415" width="140" height="35" as="geometry" />
        </mxCell>
        <mxCell id="repository-layer" value="Repository Layer" style="rounded=1;whiteSpace=wrap;html=1;fontSize=16;fillColor=#FFF9C4;strokeColor=#F57F17;strokeWidth=2;fontColor=#F57F17;fontStyle=1;verticalAlign=top;" parent="1" vertex="1">
          <mxGeometry x="350" y="495" width="520" height="110" as="geometry" />
        </mxCell>
        <mxCell id="enrollment-repo" value="📚 EnrollmentRepository" style="rounded=1;whiteSpace=wrap;html=1;fontSize=13;fillColor=#FFFFFF;strokeColor=#F57F17;strokeWidth=2;fontColor=#1A1A1A;" parent="1" vertex="1">
          <mxGeometry x="370" y="535" width="180" height="45" as="geometry" />
        </mxCell>
        <mxCell id="user-repo" value="👤 UserRepository" style="rounded=1;whiteSpace=wrap;html=1;fontSize=13;fillColor=#FFFFFF;strokeColor=#F57F17;strokeWidth=2;fontColor=#1A1A1A;" parent="1" vertex="1">
          <mxGeometry x="570" y="535" width="140" height="45" as="geometry" />
        </mxCell>
        <mxCell id="lecture-repo" value="📖 LectureRepository" style="rounded=1;whiteSpace=wrap;html=1;fontSize=13;fillColor=#FFFFFF;strokeColor=#F57F17;strokeWidth=2;fontColor=#1A1A1A;" parent="1" vertex="1">
          <mxGeometry x="730" y="535" width="130" height="45" as="geometry" />
        </mxCell>
        <mxCell id="database" value="Database" style="shape=cylinder3;whiteSpace=wrap;html=1;boundedLbl=1;backgroundOutline=1;size=15;fontSize=16;fillColor=#FFEBEE;strokeColor=#C62828;strokeWidth=2;fontColor=#B71C1C;fontStyle=1;verticalAlign=middle;" parent="1" vertex="1">
          <mxGeometry x="900" y="280" width="260" height="80" as="geometry" />
        </mxCell>
        <mxCell id="db-tables" value="USER_TBL\nLEC_TBL\nENROLLMENT_TBL" style="text;html=1;strokeColor=none;fillColor=none;align=center;verticalAlign=middle;whiteSpace=wrap;rounded=0;fontSize=11;fontColor=#1A1A1A;" parent="1" vertex="1">
          <mxGeometry x="970" y="290" width="120" height="60" as="geometry" />
        </mxCell>
        <mxCell id="arrow1" style="edgeStyle=orthogonalEdgeStyle;rounded=0;orthogonalLoop=1;jettySize=auto;html=1;strokeWidth=3;strokeColor=#1976D2;endArrow=block;endFill=1;" parent="1" source="client-layer" target="api-gateway" edge="1">
          <mxGeometry relative="1" as="geometry" />
        </mxCell>
        <mxCell id="arrow1-label" value="HTTP Request\n+ JWT Token" style="edgeLabel;html=1;align=center;verticalAlign=middle;resizable=0;points=[];fontSize=13;fontColor=#1A1A1A;backgroundColor=#FFFFFF;" parent="arrow1" vertex="1" connectable="0">
          <mxGeometry x="-0.1" y="1" relative="1" as="geometry">
            <mxPoint x="5" y="-11" as="offset" />
          </mxGeometry>
        </mxCell>
        <mxCell id="arrow2" style="edgeStyle=orthogonalEdgeStyle;rounded=0;orthogonalLoop=1;jettySize=auto;html=1;strokeWidth=3;strokeColor=#F57C00;endArrow=block;endFill=1;" parent="1" source="api-gateway" target="controller-layer" edge="1">
          <mxGeometry relative="1" as="geometry" />
        </mxCell>
        <mxCell id="arrow2-label" value="Validated Request" style="edgeLabel;html=1;align=center;verticalAlign=middle;resizable=0;points=[];fontSize=13;fontColor=#1A1A1A;backgroundColor=#FFFFFF;" parent="arrow2" vertex="1" connectable="0">
          <mxGeometry x="-0.1" y="1" relative="1" as="geometry">
            <mxPoint x="5" y="-11" as="offset" />
          </mxGeometry>
        </mxCell>
        <mxCell id="arrow3" style="edgeStyle=orthogonalEdgeStyle;rounded=0;orthogonalLoop=1;jettySize=auto;html=1;strokeWidth=3;strokeColor=#388E3C;endArrow=block;endFill=1;entryX=0.5;entryY=0;entryDx=0;entryDy=0;exitX=0.5;exitY=1;exitDx=0;exitDy=0;" parent="1" source="controller-layer" target="service-layer" edge="1">
          <mxGeometry relative="1" as="geometry">
            <mxPoint x="820" y="210" as="sourcePoint" />
            <Array as="points">
              <mxPoint x="950" y="220" />
              <mxPoint x="610" y="220" />
            </Array>
          </mxGeometry>
        </mxCell>
        <mxCell id="arrow3-label" value="Service Call" style="edgeLabel;html=1;align=center;verticalAlign=middle;resizable=0;points=[];fontSize=13;fontColor=#1A1A1A;backgroundColor=#FFFFFF;" parent="arrow3" vertex="1" connectable="0">
          <mxGeometry x="-0.1" y="1" relative="1" as="geometry">
            <mxPoint x="-37" y="-14" as="offset" />
          </mxGeometry>
        </mxCell>
        <mxCell id="arrow4" style="edgeStyle=orthogonalEdgeStyle;rounded=0;orthogonalLoop=1;jettySize=auto;html=1;strokeWidth=3;strokeColor=#7B1FA2;endArrow=block;endFill=1;entryX=0.5;entryY=0;entryDx=0;entryDy=0;exitX=0.5;exitY=1;exitDx=0;exitDy=0;" parent="1" source="service-layer" target="repository-layer" edge="1">
          <mxGeometry relative="1" as="geometry">
            <mxPoint x="610" y="495" as="sourcePoint" />
          </mxGeometry>
        </mxCell>
        <mxCell id="arrow4-label" value="Data Query" style="edgeLabel;html=1;align=center;verticalAlign=middle;resizable=0;points=[];fontSize=13;fontColor=#1A1A1A;backgroundColor=#FFFFFF;" parent="arrow4" vertex="1" connectable="0">
          <mxGeometry x="-0.1" y="1" relative="1" as="geometry">
            <mxPoint x="49" y="1" as="offset" />
          </mxGeometry>
        </mxCell>
        <mxCell id="arrow5" style="edgeStyle=orthogonalEdgeStyle;rounded=0;orthogonalLoop=1;jettySize=auto;html=1;strokeWidth=3;strokeColor=#F57F17;endArrow=block;endFill=1;entryX=0.5;entryY=0;entryDx=0;entryDy=0;entryPerimeter=0;exitX=0.5;exitY=1;exitDx=0;exitDy=0;" parent="1" source="repository-layer" target="database" edge="1">
          <mxGeometry relative="1" as="geometry">
            <mxPoint x="690" y="650" as="sourcePoint" />
            <Array as="points">
              <mxPoint x="610" y="625" />
              <mxPoint x="890" y="625" />
              <mxPoint x="890" y="260" />
              <mxPoint x="1030" y="260" />
            </Array>
          </mxGeometry>
        </mxCell>
        <mxCell id="arrow5-label" value="SQL Query" style="edgeLabel;html=1;align=center;verticalAlign=middle;resizable=0;points=[];fontSize=13;fontColor=#1A1A1A;backgroundColor=#FFFFFF;" parent="arrow5" vertex="1" connectable="0">
          <mxGeometry x="-0.1" y="1" relative="1" as="geometry">
            <mxPoint x="38" y="2" as="offset" />
          </mxGeometry>
        </mxCell>
        <mxCell id="legend-box" value="" style="rounded=1;whiteSpace=wrap;html=1;fillColor=#60a917;strokeColor=#2D7600;strokeWidth=2;dashed=1;fontColor=#ffffff;fontSize=14;" parent="1" vertex="1">
          <mxGeometry x="80" y="250" width="260" height="230" as="geometry" />
        </mxCell>
        <mxCell id="legend-title" value="📌 레이어 구조" style="text;html=1;strokeColor=none;fillColor=none;align=left;verticalAlign=middle;whiteSpace=wrap;rounded=0;fontSize=14;fontStyle=1;fontColor=light-dark(#FFFFFF,#FFFFFF);" parent="1" vertex="1">
          <mxGeometry x="100" y="260" width="220" height="30" as="geometry" />
        </mxCell>
        <mxCell id="legend-1" value="🌐 Client: 웹 브라우저" style="text;html=1;strokeColor=none;fillColor=none;align=left;verticalAlign=middle;whiteSpace=wrap;rounded=0;fontSize=14;fontColor=light-dark(#FFFFFF,#FFFFFF);" parent="1" vertex="1">
          <mxGeometry x="100" y="295" width="220" height="20" as="geometry" />
        </mxCell>
        <mxCell id="legend-2" value="🔒 Security: JWT 인증/인가" style="text;html=1;strokeColor=none;fillColor=none;align=left;verticalAlign=middle;whiteSpace=wrap;rounded=0;fontSize=14;fontColor=light-dark(#FFFFFF,#FFFFFF);" parent="1" vertex="1">
          <mxGeometry x="100" y="320" width="220" height="20" as="geometry" />
        </mxCell>
        <mxCell id="legend-3" value="📄 Controller: API 엔드포인트" style="text;html=1;strokeColor=none;fillColor=none;align=left;verticalAlign=middle;whiteSpace=wrap;rounded=0;fontSize=14;fontColor=light-dark(#FFFFFF,#FFFFFF);" parent="1" vertex="1">
          <mxGeometry x="100" y="345" width="220" height="20" as="geometry" />
        </mxCell>
        <mxCell id="legend-4" value="⚙️ Service: 비즈니스 로직" style="text;html=1;strokeColor=none;fillColor=none;align=left;verticalAlign=middle;whiteSpace=wrap;rounded=0;fontSize=14;fontColor=light-dark(#FFFFFF,#FFFFFF);" parent="1" vertex="1">
          <mxGeometry x="100" y="370" width="220" height="20" as="geometry" />
        </mxCell>
        <mxCell id="legend-5" value="📚 Repository: 데이터 접근" style="text;html=1;strokeColor=none;fillColor=none;align=left;verticalAlign=middle;whiteSpace=wrap;rounded=0;fontSize=14;fontColor=light-dark(#FFFFFF,#FFFFFF);" parent="1" vertex="1">
          <mxGeometry x="100" y="395" width="220" height="20" as="geometry" />
        </mxCell>
        <mxCell id="legend-6" value="💾 Database: MariaDB" style="text;html=1;strokeColor=none;fillColor=none;align=left;verticalAlign=middle;whiteSpace=wrap;rounded=0;fontSize=14;fontColor=light-dark(#FFFFFF,#FFFFFF);" parent="1" vertex="1">
          <mxGeometry x="100" y="420" width="220" height="20" as="geometry" />
        </mxCell>
        <mxCell id="legend-7" value="" style="endArrow=block;html=1;strokeWidth=3;strokeColor=#1976D2;endFill=1;fontColor=light-dark(#FFFFFF,#FFFFFF);fontSize=14;" parent="1" edge="1">
          <mxGeometry width="50" height="50" relative="1" as="geometry">
            <mxPoint x="100" y="455" as="sourcePoint" />
            <mxPoint x="140" y="455" as="targetPoint" />
          </mxGeometry>
        </mxCell>
        <mxCell id="legend-7-text" value="데이터 흐름 방향" style="text;html=1;strokeColor=none;fillColor=none;align=left;verticalAlign=middle;whiteSpace=wrap;rounded=0;fontSize=14;fontColor=light-dark(#FFFFFF,#FFFFFF);" parent="1" vertex="1">
          <mxGeometry x="150" y="445" width="170" height="20" as="geometry" />
        </mxCell>
      </root>
    </mxGraphModel>
  </diagram>
  <diagram id="t1la37mdHFvEKb3rFwyW" name="ページ2">
    <mxGraphModel dx="1426" dy="777" grid="1" gridSize="10" guides="1" tooltips="1" connect="1" arrows="1" fold="1" page="1" pageScale="1" pageWidth="827" pageHeight="1169" math="0" shadow="0">
      <root>
        <mxCell id="0" />
        <mxCell id="1" parent="0" />
      </root>
    </mxGraphModel>
  </diagram>
</mxfile>
